<svg width="20" height="20" viewBox="0 0 20 20" fill="none" xmlns="http://www.w3.org/2000/svg">
<path fill-rule="evenodd" clip-rule="evenodd" d="M13.975 3.75714L15.4061 2.6C15.814 2.27857 16.2934 2.15714 16.4723 2.33571L17.0662 2.92857L17.6601 3.52143C17.839 3.7 17.7174 4.17857 17.3953 4.58571L16.2361 6.05C16.6927 6.76353 17.0197 7.55177 17.2021 8.37857L19.0555 8.59286C19.5778 8.65714 20 8.90714 20 9.15714V10.8429C20 11.0929 19.5778 11.3429 19.0555 11.4071L17.2021 11.6143C17.0197 12.4433 16.6928 13.2339 16.2361 13.95L17.3953 15.3786C17.7174 15.7857 17.839 16.2643 17.6601 16.4429L17.0662 17.0357L16.4723 17.6286C16.2934 17.8071 15.814 17.6857 15.4061 17.3643L13.975 16.2071C13.2582 16.6642 12.466 16.9906 11.6351 17.1714L11.449 19.0571C11.3846 19.5786 11.1342 20 10.8837 20H9.17352C8.92308 20 8.67263 19.5786 8.60823 19.0571L8.39356 17.2071C7.56568 17.0237 6.77624 16.6974 6.06082 16.2429L4.59392 17.4C4.18605 17.7214 3.70662 17.8429 3.52773 17.6643L2.93381 17.0714L2.33989 16.4786C2.161 16.3 2.28265 15.8214 2.60465 15.4143L3.76386 13.9857C3.30604 13.2703 2.97897 12.4795 2.79785 11.65L0.944544 11.4286C0.422182 11.3429 0 11.0929 0 10.8429V9.15714C0 8.90714 0.422182 8.65714 0.944544 8.59286L2.79785 8.37857C2.98162 7.55217 3.30853 6.76414 3.76386 6.05L2.60465 4.58571C2.28265 4.17857 2.14669 3.7 2.33989 3.52143L2.93381 2.92857L3.52773 2.33571C3.70662 2.15714 4.18605 2.27857 4.59392 2.6L6.06082 3.75714C6.77563 3.30144 7.56528 2.97502 8.39356 2.79286L8.58676 0.942857C8.65116 0.421429 8.90161 0 9.15206 0H10.8408C11.0912 0 11.3417 0.421429 11.4061 0.942857L11.6136 2.79286C12.4441 2.97494 13.2362 3.30133 13.9535 3.75714H13.975ZM7.34168 10C7.33981 10.0821 7.30582 10.1602 7.24697 10.2176C7.18813 10.275 7.10911 10.3072 7.02683 10.3071C6.94523 10.3071 6.86697 10.2748 6.80926 10.2172C6.75156 10.1596 6.71914 10.0815 6.71914 10C6.71914 9.12668 7.06669 8.28913 7.68532 7.6716C8.30396 7.05407 9.14301 6.70714 10.0179 6.70714C10.0995 6.70714 10.1778 6.7395 10.2355 6.7971C10.2932 6.8547 10.3256 6.93283 10.3256 7.01429C10.3256 7.09642 10.2934 7.17529 10.2359 7.23403C10.1784 7.29277 10.1001 7.3267 10.0179 7.32857C9.66591 7.32668 9.31706 7.39448 8.99151 7.52806C8.66596 7.66164 8.37018 7.85835 8.12129 8.10679C7.87241 8.35524 7.67535 8.65048 7.54153 8.97545C7.40771 9.30042 7.33978 9.64865 7.34168 10ZM10.0179 5.35714C10.9378 5.35714 11.8371 5.62944 12.6019 6.13961C13.3668 6.64977 13.963 7.37488 14.315 8.22326C14.667 9.07163 14.7591 10.0052 14.5797 10.9058C14.4002 11.8064 13.9572 12.6337 13.3068 13.283C12.6563 13.9323 11.8275 14.3745 10.9253 14.5536C10.023 14.7328 9.08785 14.6408 8.23797 14.2894C7.38808 13.938 6.66166 13.3429 6.15059 12.5794C5.63951 11.8159 5.36673 10.9183 5.36673 10C5.36673 8.76864 5.85676 7.58771 6.72902 6.717C7.60128 5.8463 8.78432 5.35714 10.0179 5.35714Z" fill="black"/>
</svg>
