<svg width="20" height="20" viewBox="0 0 20 20" fill="none" xmlns="http://www.w3.org/2000/svg">
<path d="M15.3333 10.6667C14.4104 10.6667 13.5081 10.9404 12.7407 11.4531C11.9732 11.9659 11.3751 12.6948 11.0219 13.5475C10.6687 14.4002 10.5763 15.3385 10.7563 16.2438C10.9364 17.149 11.3809 17.9805 12.0335 18.6332C12.6861 19.2858 13.5177 19.7303 14.4229 19.9103C15.3282 20.0904 16.2665 19.998 17.1192 19.6448C17.9719 19.2916 18.7007 18.6934 19.2135 17.926C19.7263 17.1586 20 16.2563 20 15.3333C20 14.0957 19.5083 12.9087 18.6332 12.0335C17.758 11.1583 16.571 10.6667 15.3333 10.6667ZM17.14 16.1933C17.2025 16.2553 17.2521 16.329 17.2859 16.4103C17.3198 16.4915 17.3372 16.5787 17.3372 16.6667C17.3372 16.7547 17.3198 16.8418 17.2859 16.923C17.2521 17.0043 17.2025 17.078 17.14 17.14C17.078 17.2025 17.0043 17.2521 16.9231 17.2859C16.8418 17.3198 16.7547 17.3372 16.6667 17.3372C16.5787 17.3372 16.4915 17.3198 16.4103 17.2859C16.329 17.2521 16.2553 17.2025 16.1933 17.14L15.3333 16.2733L14.4733 17.14C14.4114 17.2025 14.3376 17.2521 14.2564 17.2859C14.1751 17.3198 14.088 17.3372 14 17.3372C13.912 17.3372 13.8249 17.3198 13.7436 17.2859C13.6624 17.2521 13.5886 17.2025 13.5267 17.14C13.4642 17.078 13.4146 17.0043 13.3807 16.923C13.3469 16.8418 13.3295 16.7547 13.3295 16.6667C13.3295 16.5787 13.3469 16.4915 13.3807 16.4103C13.4146 16.329 13.4642 16.2553 13.5267 16.1933L14.3933 15.3333L13.5267 14.4733C13.4011 14.3478 13.3306 14.1775 13.3306 14C13.3306 13.8225 13.4011 13.6522 13.5267 13.5267C13.6522 13.4011 13.8225 13.3306 14 13.3306C14.1775 13.3306 14.3478 13.4011 14.4733 13.5267L15.3333 14.3933L16.1933 13.5267C16.3189 13.4011 16.4891 13.3306 16.6667 13.3306C16.8442 13.3306 17.0145 13.4011 17.14 13.5267C17.2655 13.6522 17.3361 13.8225 17.3361 14C17.3361 14.1775 17.2655 14.3478 17.14 14.4733L16.2733 15.3333L17.14 16.1933ZM0 0.666667V8.66667C0 8.84348 0.0702379 9.01305 0.195262 9.13807C0.320286 9.26309 0.489856 9.33333 0.666667 9.33333H2V3.3835e-07H0.666667C0.489856 3.3835e-07 0.320286 0.0702382 0.195262 0.195262C0.0702379 0.320287 0 0.489856 0 0.666667ZM15.1867 7.66667C15.1833 7.48731 15.1518 7.30959 15.0933 7.14C15.3404 7.01597 15.5523 6.83173 15.7094 6.60427C15.8665 6.37681 15.9638 6.11346 15.9924 5.83849C16.0209 5.56352 15.9798 5.28579 15.8728 5.0309C15.7658 4.776 15.5963 4.55216 15.38 4.38C15.4859 4.15688 15.5428 3.91363 15.5467 3.66667C15.5453 3.43391 15.4954 3.204 15.4001 2.99164C15.3048 2.77927 15.1663 2.58912 14.9933 2.43333C15.1196 2.19747 15.186 1.9342 15.1867 1.66667C15.1867 1.4478 15.1436 1.23107 15.0598 1.02886C14.976 0.826652 14.8533 0.64292 14.6985 0.488156C14.5437 0.333391 14.36 0.210626 14.1578 0.126868C13.9556 0.0431099 13.7389 3.3835e-07 13.52 3.3835e-07H10.1867C9.7614 -0.000272655 9.35265 0.16466 9.04667 0.46H6.56667C6.21505 0.460105 5.8714 0.564737 5.57939 0.7606C5.28737 0.956463 5.06018 1.23472 4.92667 1.56H4.66667V0.666667C4.66667 0.489856 4.59643 0.320287 4.4714 0.195262C4.34638 0.0702382 4.17681 3.3835e-07 4 3.3835e-07H3.33333V9.33333H4C4.17681 9.33333 4.34638 9.26309 4.4714 9.13807C4.59643 9.01305 4.66667 8.84348 4.66667 8.66667V7.33333H5.64667L5.90667 7.9C6.40027 8.96357 6.65946 10.1208 6.66667 11.2933C6.66136 11.8238 6.86699 12.3346 7.23831 12.7134C7.60963 13.0922 8.11623 13.308 8.64667 13.3133C9.1771 13.3186 9.68791 13.113 10.0667 12.7417C10.4456 12.3704 10.6614 11.8638 10.6667 11.3333V9.33333H13.5467C13.9841 9.32633 14.4012 9.14765 14.708 8.83585C15.0148 8.52404 15.1867 8.10411 15.1867 7.66667Z" fill="black"/>
</svg>
