<svg width="20" height="19" viewBox="0 0 20 19" fill="none" xmlns="http://www.w3.org/2000/svg">
<path d="M0.504473 7.89134L9.50024 13.7004C9.65218 13.7984 9.82455 13.8501 10 13.8501C10.1755 13.8501 10.3478 13.7984 10.4998 13.7004L19.4955 7.89134C19.647 7.79314 19.7727 7.65219 19.8601 7.4826C19.9475 7.31301 19.9935 7.12074 19.9935 6.92503C19.9935 6.72932 19.9475 6.53704 19.8601 6.36746C19.7727 6.19787 19.647 6.05692 19.4955 5.95871L10.4998 0.149667C10.3478 0.0516184 10.1755 0 10 0C9.82455 0 9.65218 0.0516184 9.50024 0.149667L0.504473 5.95871C0.353005 6.05692 0.227278 6.19787 0.139879 6.36746C0.0524812 6.53704 0.00647916 6.72932 0.00647916 6.92503C0.00647916 7.12074 0.0524812 7.31301 0.139879 7.4826C0.227278 7.65219 0.353005 7.79314 0.504473 7.89134ZM10 2.40626L16.9967 6.87476L10 11.3991L3.0033 6.91944L10 2.40626ZM18.496 11.1087L10 16.5937L1.504 11.1087C1.39052 11.0343 1.26502 10.9858 1.13471 10.9658C1.00441 10.9458 0.871844 10.9547 0.74463 10.992C0.617415 11.0294 0.498049 11.0945 0.393376 11.1835C0.288702 11.2725 0.200779 11.3837 0.134647 11.5108C0.0685591 11.6383 0.0256931 11.7792 0.00851787 11.9253C-0.00865736 12.0714 0.000197429 12.2198 0.0345724 12.3621C0.0689473 12.5043 0.128163 12.6376 0.20881 12.7542C0.289456 12.8707 0.389939 12.9683 0.504473 13.0413L9.50024 18.8503C9.65218 18.9484 9.82455 19 10 19C10.1755 19 10.3478 18.9484 10.4998 18.8503L19.4955 13.0413C19.6101 12.9683 19.7105 12.8707 19.7912 12.7542C19.8718 12.6376 19.9311 12.5043 19.9654 12.3621C19.9998 12.2198 20.0087 12.0714 19.9915 11.9253C19.9743 11.7792 19.9314 11.6383 19.8654 11.5108C19.7992 11.3837 19.7113 11.2725 19.6066 11.1835C19.502 11.0945 19.3826 11.0294 19.2554 10.992C19.1282 10.9547 18.9956 10.9458 18.8653 10.9658C18.735 10.9858 18.6095 11.0343 18.496 11.1087Z" fill="black"/>
</svg>
