<svg width="46" height="42" viewBox="0 0 46 42" fill="none" xmlns="http://www.w3.org/2000/svg">
<path d="M45.7048 23.163L42.7111 20.2001C42.3246 19.8106 41.6939 19.8068 41.3074 20.2001L34.9987 26.46L27.7806 33.642L22.191 28.0865C21.7987 27.6952 21.1681 27.6952 20.7796 28.0865L17.7916 31.0514C17.3994 31.4427 17.3994 32.0689 17.7916 32.4565L27.071 41.6774C27.4652 42.0687 28.1036 42.0687 28.4862 41.6774L45.701 24.5681C46.099 24.1825 46.099 23.5563 45.7048 23.163ZM13.7268 27.0155L16.7129 24.0431C19.2645 21.5155 23.7042 21.5116 26.2538 24.0469L27.7748 25.557L34.6103 19.0909V0H0V42H19.228L13.7288 36.5037C11.0984 33.8825 11.0984 29.6272 13.7288 27.0136L13.7268 27.0155ZM11.5349 3.82009H30.7628V7.63827H11.5349V3.82009ZM11.5349 11.4565H30.7628V15.2746H11.5349V11.4565ZM7.68926 22.911H3.84367V19.0928H7.68926V22.911ZM7.68926 15.2746H3.84367V11.4565H7.68926V15.2746ZM7.68926 7.63827H3.84367V3.82009H7.68926V7.63827ZM11.5349 19.0928H15.3804V22.911H11.5349V19.0928Z" fill="white"/>
</svg>
