<svg width="43" height="43" viewBox="0 0 43 43" fill="none" xmlns="http://www.w3.org/2000/svg">
<path d="M21.5 0C17.2477 0 13.0909 1.26095 9.55525 3.6234C6.01959 5.98585 3.26388 9.34369 1.6366 13.2723C0.00931554 17.2009 -0.416456 21.5238 0.413126 25.6944C1.24271 29.865 3.29038 33.696 6.29721 36.7028C9.30404 39.7096 13.135 41.7573 17.3056 42.5869C21.4762 43.4165 25.7991 42.9907 29.7277 41.3634C33.6563 39.7361 37.0141 36.9804 39.3766 33.4448C41.739 29.9091 43 25.7523 43 21.5C43 15.7978 40.7348 10.3292 36.7028 6.2972C32.6708 2.26517 27.2022 0 21.5 0ZM21.5 38.9687C18.045 38.9687 14.6676 37.9442 11.7949 36.0247C8.92217 34.1052 6.68316 31.377 5.36099 28.185C4.03882 24.993 3.69288 21.4806 4.36692 18.092C5.04095 14.7034 6.70469 11.5908 9.14774 9.14773C11.5908 6.70468 14.7034 5.04094 18.092 4.36691C21.4806 3.69287 24.993 4.03881 28.185 5.36098C31.377 6.68315 34.1052 8.92216 36.0247 11.7949C37.9442 14.6676 38.9688 18.045 38.9688 21.5C38.9688 26.133 37.1283 30.5762 33.8523 33.8523C30.5762 37.1283 26.133 38.9687 21.5 38.9687Z" fill="url(#paint0_linear_277_213)"/>
<path d="M21.5 5.375C18.3108 5.375 15.1932 6.32071 12.5414 8.09255C9.88969 9.86439 7.82291 12.3828 6.60245 15.3292C5.38199 18.2757 5.06266 21.5179 5.68484 24.6458C6.30703 27.7738 7.84279 30.647 10.0979 32.9021C12.353 35.1572 15.2262 36.693 18.3542 37.3152C21.4821 37.9373 24.7243 37.618 27.6708 36.3975C30.6172 35.1771 33.1356 33.1103 34.9074 30.4586C36.6793 27.8068 37.625 24.6892 37.625 21.5C37.6202 17.2249 35.9198 13.1262 32.8968 10.1032C29.8738 7.08022 25.7751 5.3798 21.5 5.375ZM31.0453 30.0953C31.1095 30.1573 31.1607 30.2314 31.1959 30.3134C31.2311 30.3953 31.2496 30.4835 31.2504 30.5727C31.2512 30.6619 31.2342 30.7504 31.2004 30.833C31.1666 30.9155 31.1167 30.9906 31.0537 31.0536C30.9906 31.1167 30.9156 31.1666 30.833 31.2004C30.7504 31.2342 30.6619 31.2512 30.5727 31.2504C30.4835 31.2496 30.3954 31.2311 30.3134 31.1959C30.2314 31.1607 30.1573 31.1095 30.0953 31.0453L21.5 22.45L12.9047 31.0453C12.778 31.1677 12.6083 31.2354 12.4321 31.2339C12.2559 31.2324 12.0874 31.1617 11.9629 31.0371C11.8383 30.9126 11.7676 30.7441 11.7661 30.5679C11.7646 30.3917 11.8323 30.222 11.9547 30.0953L20.55 21.5L11.9547 12.9047C11.8323 12.778 11.7646 12.6083 11.7661 12.4321C11.7676 12.2559 11.8383 12.0874 11.9629 11.9629C12.0874 11.8383 12.2559 11.7676 12.4321 11.7661C12.6083 11.7646 12.778 11.8323 12.9047 11.9547L21.5 20.55L30.0953 11.9547C30.222 11.8323 30.3917 11.7646 30.5679 11.7661C30.7441 11.7676 30.9126 11.8383 31.0371 11.9629C31.1617 12.0874 31.2324 12.2559 31.2339 12.4321C31.2354 12.6083 31.1677 12.778 31.0453 12.9047L22.45 21.5L31.0453 30.0953Z" fill="url(#paint1_linear_277_213)"/>
<defs>
<linearGradient id="paint0_linear_277_213" x1="21.5" y1="0" x2="21.5" y2="43" gradientUnits="userSpaceOnUse">
<stop stop-color="#42EFFF"/>
<stop offset="1" stop-color="#1B96D8"/>
</linearGradient>
<linearGradient id="paint1_linear_277_213" x1="21.5" y1="5.375" x2="21.5" y2="37.625" gradientUnits="userSpaceOnUse">
<stop stop-color="#42EFFF"/>
<stop offset="1" stop-color="#1B96D8"/>
</linearGradient>
</defs>
</svg>
