<svg width="43" height="43" viewBox="0 0 43 43" fill="none" xmlns="http://www.w3.org/2000/svg">
<path d="M21.5 0C17.2477 0 13.0909 1.26095 9.55525 3.6234C6.01959 5.98585 3.26388 9.34369 1.6366 13.2723C0.00931554 17.2009 -0.416456 21.5238 0.413126 25.6944C1.24271 29.865 3.29038 33.696 6.29721 36.7028C9.30404 39.7096 13.135 41.7573 17.3056 42.5869C21.4762 43.4165 25.7991 42.9907 29.7277 41.3634C33.6563 39.7361 37.0141 36.9804 39.3766 33.4448C41.739 29.9091 43 25.7523 43 21.5C43 15.7978 40.7348 10.3292 36.7028 6.2972C32.6708 2.26517 27.2022 0 21.5 0ZM21.5 38.9687C18.045 38.9687 14.6676 37.9442 11.7949 36.0247C8.92217 34.1052 6.68316 31.377 5.36099 28.185C4.03882 24.993 3.69288 21.4806 4.36692 18.092C5.04095 14.7034 6.70469 11.5908 9.14774 9.14773C11.5908 6.70468 14.7034 5.04094 18.092 4.36691C21.4806 3.69287 24.993 4.03881 28.185 5.36098C31.377 6.68315 34.1052 8.92216 36.0247 11.7949C37.9442 14.6676 38.9688 18.045 38.9688 21.5C38.9688 26.133 37.1283 30.5762 33.8523 33.8523C30.5762 37.1283 26.133 38.9687 21.5 38.9687Z" fill="white"/>
<path d="M21.125 5C17.9358 5 14.8182 5.94571 12.1664 7.71755C9.51469 9.48939 7.44791 12.0078 6.22745 14.9542C5.00699 17.9007 4.68766 21.1429 5.30984 24.2708C5.93203 27.3988 7.46779 30.272 9.72291 32.5271C11.978 34.7822 14.8512 36.318 17.9792 36.9402C21.1071 37.5623 24.3493 37.243 27.2958 36.0225C30.2422 34.8021 32.7606 32.7353 34.5324 30.0836C36.3043 27.4318 37.25 24.3142 37.25 21.125C37.2452 16.8499 35.5448 12.7512 32.5218 9.72821C29.4988 6.70522 25.4001 5.0048 21.125 5ZM30.6703 29.7203C30.7345 29.7823 30.7857 29.8564 30.8209 29.9384C30.8561 30.0203 30.8746 30.1085 30.8754 30.1977C30.8762 30.2869 30.8592 30.3754 30.8254 30.458C30.7916 30.5405 30.7417 30.6156 30.6787 30.6786C30.6156 30.7417 30.5406 30.7916 30.458 30.8254C30.3754 30.8592 30.2869 30.8762 30.1977 30.8754C30.1085 30.8746 30.0204 30.8561 29.9384 30.8209C29.8564 30.7857 29.7823 30.7345 29.7203 30.6703L21.125 22.075L12.5297 30.6703C12.403 30.7927 12.2333 30.8604 12.0571 30.8589C11.8809 30.8574 11.7124 30.7867 11.5879 30.6621C11.4633 30.5376 11.3926 30.3691 11.3911 30.1929C11.3896 30.0167 11.4573 29.847 11.5797 29.7203L20.175 21.125L11.5797 12.5297C11.4573 12.403 11.3896 12.2333 11.3911 12.0571C11.3926 11.8809 11.4633 11.7124 11.5879 11.5879C11.7124 11.4633 11.8809 11.3926 12.0571 11.3911C12.2333 11.3896 12.403 11.4573 12.5297 11.5797L21.125 20.175L29.7203 11.5797C29.847 11.4573 30.0167 11.3896 30.1929 11.3911C30.3691 11.3926 30.5376 11.4633 30.6621 11.5879C30.7867 11.7124 30.8574 11.8809 30.8589 12.0571C30.8604 12.2333 30.7927 12.403 30.6703 12.5297L22.075 21.125L30.6703 29.7203Z" fill="white"/>
</svg>
