<svg width="45" height="45" viewBox="0 0 45 45" fill="none" xmlns="http://www.w3.org/2000/svg">
<path d="M22.5 0C18.0499 0 13.6998 1.3196 9.99968 3.79193C6.29957 6.26426 3.41569 9.77828 1.71272 13.8896C0.00974889 18.001 -0.435826 22.525 0.432341 26.8895C1.30051 31.2541 3.44343 35.2632 6.59011 38.4099C9.73679 41.5566 13.7459 43.6995 18.1105 44.5677C22.475 45.4358 26.999 44.9902 31.1104 43.2873C35.2217 41.5843 38.7357 38.7004 41.2081 35.0003C43.6804 31.3002 45 26.9501 45 22.5C45 19.5453 44.418 16.6194 43.2873 13.8896C42.1566 11.1598 40.4992 8.67941 38.4099 6.5901C36.3206 4.50078 33.8402 2.84344 31.1104 1.71271C28.3806 0.58198 25.4547 0 22.5 0ZM22.5 36C22.055 36 21.62 35.868 21.25 35.6208C20.88 35.3736 20.5916 35.0222 20.4213 34.611C20.251 34.1999 20.2064 33.7475 20.2932 33.311C20.3801 32.8746 20.5943 32.4737 20.909 32.159C21.2237 31.8443 21.6246 31.63 22.0611 31.5432C22.4975 31.4564 22.9499 31.501 23.361 31.6713C23.7722 31.8416 24.1236 32.1299 24.3708 32.5C24.618 32.87 24.75 33.305 24.75 33.75C24.75 34.3467 24.513 34.919 24.091 35.341C23.669 35.7629 23.0967 36 22.5 36ZM24.75 24.39V27C24.75 27.5967 24.513 28.169 24.091 28.591C23.669 29.0129 23.0967 29.25 22.5 29.25C21.9033 29.25 21.331 29.0129 20.909 28.591C20.4871 28.169 20.25 27.5967 20.25 27V22.5C20.25 21.9033 20.4871 21.331 20.909 20.909C21.331 20.487 21.9033 20.25 22.5 20.25C23.1675 20.25 23.82 20.0521 24.3751 19.6812C24.9301 19.3104 25.3627 18.7833 25.6181 18.1666C25.8735 17.5499 25.9404 16.8713 25.8102 16.2166C25.6799 15.5619 25.3585 14.9605 24.8865 14.4885C24.4145 14.0165 23.8131 13.6951 23.1584 13.5648C22.5038 13.4346 21.8251 13.5015 21.2085 13.7569C20.5917 14.0123 20.0646 14.4449 19.6938 14.9999C19.3229 15.555 19.125 16.2075 19.125 16.875C19.125 17.4717 18.888 18.044 18.466 18.466C18.044 18.8879 17.4717 19.125 16.875 19.125C16.2783 19.125 15.706 18.8879 15.284 18.466C14.8621 18.044 14.625 17.4717 14.625 16.875C14.6191 15.4132 15.0202 13.9786 15.7835 12.7318C16.5467 11.485 17.6419 10.4753 18.9464 9.81563C20.2509 9.15599 21.7133 8.87248 23.1699 8.99683C24.6264 9.12119 26.0196 9.64851 27.1934 10.5198C28.3672 11.391 29.2754 12.5718 29.8162 13.9299C30.357 15.288 30.5091 16.7699 30.2555 18.2095C30.0019 19.6492 29.3526 20.9898 28.3802 22.0814C27.4079 23.1729 26.1509 23.9723 24.75 24.39Z" fill="white"/>
</svg>
