<svg width="72" height="86" viewBox="0 0 72 86" fill="none" xmlns="http://www.w3.org/2000/svg">
<path d="M1.44836 0C0.645729 0 1.48609e-07 0.644857 0 1.44638V84.5536C0 85.3551 0.645729 86 1.44836 86H70.5516C71.3543 86 72 85.3551 72 84.5536V28.8841L43.4363 0H1.44836ZM43.4363 4.93623L67.118 28.8841H44.5973C44.0039 28.8841 43.4363 28.4254 43.4363 27.7015V4.93623ZM22.2391 10.6348C28.044 10.6348 32.7811 15.3655 32.7811 21.1623C32.781 23.812 31.2547 26.0391 29.4896 27.9652C32.3541 29.4655 34.7934 31.7115 36.2903 34.7246C38.0364 38.2395 39.0347 42.2218 39.5266 45.6058C39.6554 46.4995 38.962 47.3 38.0579 47.3015H6.68161C5.7775 47.3 5.08413 46.4995 5.21293 45.6058C5.70566 42.2391 6.64345 38.2522 8.32734 34.7362C9.76799 31.7281 12.1709 29.4915 15.0206 27.9884C13.2383 26.0619 11.6983 23.8239 11.6943 21.1623C11.6943 15.3655 16.4343 10.6348 22.2391 10.6348ZM22.2391 13.6058C18.0406 13.6058 14.6694 16.9696 14.6694 21.1623C14.6728 23.4741 15.7371 25.658 17.5545 27.0899C18.4724 27.822 18.217 29.2781 17.1046 29.6551C14.5181 30.5291 12.4931 32.907 11.0035 36.0174C9.76641 38.6004 9.14727 41.5754 8.63501 44.3333H36.0813C35.5581 41.5891 34.9098 38.6253 33.6257 36.0406C32.0787 32.9266 29.983 30.523 27.394 29.6435C26.2855 29.2607 26.037 27.8065 26.9557 27.0783C28.7629 25.6434 29.806 23.468 29.806 21.1623C29.806 16.9696 26.4377 13.6058 22.2391 13.6058ZM44.8585 35.6029C44.8662 35.6028 44.874 35.6028 44.8817 35.6029H62.9383C64.0454 35.6029 64.9875 36.5355 64.9875 37.6406V43.3797C64.9875 44.4847 64.0452 45.429 62.9383 45.429H44.4405C43.3335 45.429 42.4001 44.4848 42.4001 43.3797V37.913C42.4001 37.3257 42.6482 36.6154 43.1692 36.171C43.6903 35.7266 44.313 35.6029 44.8585 35.6029ZM45.3752 38.571V42.4609H62.0153V38.571H45.3752ZM10.7858 52.2551H29.7857C30.8928 52.2551 31.8262 53.1963 31.8262 54.3015V60.0435C31.8262 61.1485 30.8926 62.0812 29.7857 62.0812H10.3678C9.26073 62.0812 8.32734 61.1504 8.32734 60.0435V54.5768C8.32734 53.2305 9.15405 52.3709 10.7858 52.2551ZM39.6688 52.2551H62.9383C64.0454 52.2551 64.9875 53.1963 64.9875 54.3015V60.0435C64.9875 61.1485 64.0452 62.0812 62.9383 62.0812H39.2537C38.1466 62.0812 37.2133 61.1486 37.2133 60.0435V54.5768C37.2133 52.9865 37.8186 52.2551 39.6688 52.2551ZM11.2995 55.2232V59.113H28.854V55.2232H11.2995ZM40.1854 55.2232V59.113H62.0153V55.2232H40.1854ZM10.7858 66.7246H29.7857C30.8928 66.7246 31.8262 67.6688 31.8262 68.7739V74.5159C31.8262 75.621 30.8926 76.5536 29.7857 76.5536H10.3678C9.26073 76.5536 8.32734 75.6229 8.32734 74.5159V69.0493C8.32734 67.6274 9.15477 66.8429 10.7858 66.7246ZM42.8703 66.7246H62.3549C63.462 66.7246 64.3954 67.6688 64.3954 68.7739V74.5159C64.3954 75.621 63.4618 76.5536 62.3549 76.5536H42.9486C41.8416 76.5536 40.8995 75.6229 40.8995 74.5159V69.0493C40.8995 67.3177 41.6649 66.8114 42.8703 66.7246ZM11.2995 69.6957V73.5826H28.854V69.6957H11.2995ZM43.8716 69.6957V73.5826H61.4232V69.6957H43.8716Z" fill="url(#paint0_linear_200_215)"/>
<defs>
<linearGradient id="paint0_linear_200_215" x1="36" y1="0" x2="36" y2="86" gradientUnits="userSpaceOnUse">
<stop stop-color="#42EFFF"/>
<stop offset="1" stop-color="#1B96D8"/>
</linearGradient>
</defs>
</svg>
