<svg width="84" height="70" viewBox="0 0 84 70" fill="none" xmlns="http://www.w3.org/2000/svg">
<path d="M83.7027 53.314V46.0972C82.7418 46.7076 81.7136 47.2051 80.6386 47.5799C77.2911 48.7912 72.9029 49.4582 68.2183 49.4582C63.5336 49.4582 59.131 48.7912 55.7831 47.5799C54.7103 47.2052 53.6844 46.7076 52.7259 46.0972V53.5554C52.7259 55.2105 58.0009 58.2981 68.2143 58.2981C78.4277 58.2981 83.7027 55.2105 83.7027 53.5554V53.314ZM68.197 35.0589C78.4105 35.0589 83.753 31.9711 83.753 30.3161C83.753 28.661 78.4114 25.5732 68.197 25.5732C57.9826 25.5732 52.6411 28.6608 52.6411 30.3161C52.6411 31.9713 57.9838 35.0589 68.197 35.0589Z" fill="url(#paint0_linear_200_287)"/>
<path d="M68.2184 61.0789C63.5333 61.0789 59.131 60.4119 55.7831 59.2006C54.7101 58.826 53.6839 58.3284 52.7252 57.7179V65.257C52.7252 66.9121 58.019 69.9996 68.2335 69.9996C70.7922 70.0106 73.3463 69.7803 75.8619 69.3118C78.3756 68.8295 80.4639 68.1204 81.9159 67.2665C83.0676 66.5882 83.703 65.8567 83.703 65.2574V57.7179C82.7421 58.3285 81.7139 58.826 80.6389 59.2006C77.2912 60.4119 72.9032 61.0789 68.2184 61.0789ZM83.7028 34.4768C82.7417 35.0874 81.7133 35.5851 80.6381 35.9599C77.2896 37.1712 72.9018 37.8391 68.2184 37.8391C63.5349 37.8391 59.1326 37.1717 55.7839 35.9599C54.7108 35.5852 53.6846 35.0875 52.726 34.4768V41.9364C52.726 43.5915 58.001 46.679 68.2144 46.679C78.4278 46.679 83.7028 43.5915 83.7028 41.9364V34.4768ZM6.98075 13.5019C11.7625 15.2324 18.1485 16.1853 24.9628 16.1853C31.7771 16.1853 38.1631 15.2322 42.9448 13.5019C47.1573 11.9775 49.6722 9.96913 49.6722 8.12998C49.6722 6.29083 47.1573 4.2825 42.9448 2.75788C38.1631 1.02735 31.7769 0.0742188 24.9628 0.0742188C18.1487 0.0742188 11.7625 1.02735 6.98075 2.75788C2.7683 4.2825 0.253418 6.29063 0.253418 8.12998C0.253418 9.96933 2.7683 11.9775 6.98075 13.5019ZM49.7474 43.5506V30.949C47.9687 32.2466 46.011 33.279 43.9355 34.0139C38.8597 35.8505 32.1059 36.862 24.9753 36.862C17.8447 36.862 11.135 35.8505 6.05899 34.0139C3.63962 33.1386 1.69364 32.1023 0.303656 30.949V43.9231C0.303656 45.7636 2.80245 47.7724 7.0153 49.2964C11.7955 51.0261 18.1664 51.9787 24.9825 51.9787C31.7985 51.9787 38.2042 51.0255 42.9846 49.2964C47.1952 47.7724 49.7474 45.7638 49.7474 43.9231V43.5506Z" fill="url(#paint1_linear_200_287)"/>
<path d="M49.7475 13.0503C47.9685 14.3481 46.0105 15.3806 43.9348 16.1156C38.8573 17.9532 32.1038 18.9651 24.9754 18.9651C17.8469 18.9651 11.1375 17.9524 6.05984 16.1156C3.64107 15.2395 1.6937 14.2038 0.303711 13.0503V26.0264C0.303711 27.8669 2.80251 29.8755 7.01536 31.3995C11.7955 33.1292 18.1664 34.0818 24.9825 34.0818C31.7986 34.0818 38.2043 33.1286 42.9846 31.3995C47.1963 29.8755 49.7485 27.8669 49.7485 26.0264L49.7475 13.0503ZM24.9754 54.7584C17.8449 54.7584 11.1351 53.7469 6.05905 51.9103C3.63968 51.035 1.6937 49.9987 0.303711 48.8452V61.944C0.303711 63.7846 2.80251 65.7931 7.01536 67.3169C11.7955 69.0467 18.1662 69.9992 24.9825 69.9992C29.0004 70.0158 33.0111 69.6568 36.9622 68.9269C44.464 67.4877 49.7475 64.6152 49.7475 61.943V48.8454C47.9688 50.143 46.011 51.1754 43.9356 51.9103C38.8597 53.7469 32.106 54.7584 24.9754 54.7584Z" fill="url(#paint2_linear_200_287)"/>
<defs>
<linearGradient id="paint0_linear_200_287" x1="68.197" y1="25.5732" x2="68.197" y2="58.2981" gradientUnits="userSpaceOnUse">
<stop stop-color="#42EFFF"/>
<stop offset="1" stop-color="#1B96D8"/>
</linearGradient>
<linearGradient id="paint1_linear_200_287" x1="41.9782" y1="0.0742187" x2="41.9782" y2="70" gradientUnits="userSpaceOnUse">
<stop stop-color="#42EFFF"/>
<stop offset="1" stop-color="#1B96D8"/>
</linearGradient>
<linearGradient id="paint2_linear_200_287" x1="25.0261" y1="13.0503" x2="25.0261" y2="69.9998" gradientUnits="userSpaceOnUse">
<stop stop-color="#42EFFF"/>
<stop offset="1" stop-color="#1B96D8"/>
</linearGradient>
</defs>
</svg>
