<svg width="84" height="84" viewBox="0 0 84 84" fill="none" xmlns="http://www.w3.org/2000/svg">
<path d="M46.4742 17.3091C46.2315 17.3103 45.9924 17.2505 45.7789 17.1353L41.9986 15.0351L38.2183 17.1353C37.9845 17.2623 37.7203 17.3224 37.4546 17.3092C37.189 17.2959 36.9321 17.2098 36.7121 17.0601C36.4922 16.9105 36.3177 16.7032 36.2078 16.461C36.0979 16.2187 36.0568 15.9509 36.0891 15.6869L36.8278 11.1678L33.7137 7.98135C33.5325 7.79254 33.4059 7.55817 33.3472 7.30314C33.2886 7.04811 33.3001 6.78195 33.3806 6.53295C33.4657 6.2802 33.6189 6.05584 33.8233 5.88461C34.0278 5.71338 34.2755 5.60192 34.5393 5.56252L38.7831 4.91074L40.6805 0.855208C40.7957 0.602334 40.9813 0.387939 41.215 0.2376C41.4487 0.0872613 41.7207 0.00732422 41.9986 0.00732422C42.2765 0.00732422 42.5485 0.0872613 42.7822 0.2376C43.0159 0.387939 43.2014 0.602334 43.3166 0.855208L45.214 4.91074L49.4579 5.56252C49.7216 5.60192 49.9694 5.71338 50.1738 5.88461C50.3783 6.05584 50.5315 6.2802 50.6166 6.53295C50.6971 6.78195 50.7086 7.04811 50.65 7.30314C50.5913 7.55817 50.4646 7.79254 50.2835 7.98135L47.1694 11.1678L47.9081 15.6869C47.9583 15.9598 47.929 16.2414 47.8237 16.4982C47.7184 16.755 47.5416 16.9761 47.3142 17.1353C47.0582 17.2767 46.7653 17.3373 46.4742 17.3091ZM41.9986 11.9355C42.2433 11.9325 42.4841 11.9977 42.6938 12.1238L44.5623 13.1522L44.1857 10.8492C44.1488 10.6254 44.165 10.3962 44.2329 10.1798C44.3008 9.96347 44.4186 9.76609 44.5767 9.60357L46.2279 7.90893L44.0119 7.5758C43.7784 7.53947 43.5573 7.44657 43.368 7.30519C43.1786 7.16381 43.0267 6.97825 42.9256 6.76469L41.9986 4.78038L41.0716 6.76469C40.9704 6.97825 40.8186 7.16381 40.6292 7.30519C40.4399 7.44657 40.2188 7.53947 39.9853 7.5758L37.7692 7.90893L39.4204 9.60357C39.5786 9.76609 39.6963 9.96347 39.7643 10.1798C39.8322 10.3962 39.8484 10.6254 39.8115 10.8492L39.4349 13.1522L41.3034 12.1238C41.5131 11.9977 41.7539 11.9325 41.9986 11.9355ZM46.4742 83.9356C46.2315 83.9369 45.9924 83.8771 45.7789 83.7618L41.9986 81.6617L38.2183 83.7618C37.9845 83.8888 37.7203 83.949 37.4546 83.9357C37.189 83.9225 36.9321 83.8363 36.7121 83.6867C36.4922 83.5371 36.3177 83.3298 36.2078 83.0875C36.0979 82.8453 36.0568 82.5775 36.0891 82.3134L36.8278 77.7944L33.7137 74.6079C33.5325 74.4191 33.4059 74.1847 33.3472 73.9297C33.2886 73.6747 33.3001 73.4085 33.3806 73.1595C33.4657 72.9068 33.6189 72.6824 33.8233 72.5112C34.0278 72.34 34.2755 72.2285 34.5393 72.1891L38.7831 71.5373L40.6805 67.4818C40.7957 67.2289 40.9813 67.0145 41.215 66.8642C41.4487 66.7138 41.7207 66.6339 41.9986 66.6339C42.2765 66.6339 42.5485 66.7138 42.7822 66.8642C43.0159 67.0145 43.2014 67.2289 43.3166 67.4818L45.214 71.5373L49.4579 72.1891C49.7216 72.2285 49.9694 72.34 50.1738 72.5112C50.3783 72.6824 50.5315 72.9068 50.6166 73.1595C50.6971 73.4085 50.7086 73.6747 50.65 73.9297C50.5913 74.1847 50.4646 74.4191 50.2835 74.6079L47.1694 77.7944L47.9081 82.3134C47.9583 82.5864 47.929 82.868 47.8237 83.1248C47.7184 83.3815 47.5416 83.6027 47.3142 83.7618C47.0582 83.9033 46.7653 83.9639 46.4742 83.9356ZM41.9986 78.5621C42.2433 78.5591 42.4841 78.6243 42.6938 78.7504L44.5623 79.7787L44.1857 77.4758C44.1488 77.252 44.165 77.0227 44.2329 76.8064C44.3008 76.59 44.4186 76.3927 44.5767 76.2301L46.2279 74.5355L44.0119 74.2024C43.7784 74.166 43.5573 74.0731 43.368 73.9318C43.1786 73.7904 43.0267 73.6048 42.9256 73.3913L41.9986 71.407L41.0716 73.3913C40.9704 73.6048 40.8186 73.7904 40.6292 73.9318C40.4399 74.0731 40.2188 74.166 39.9853 74.2024L37.7692 74.5355L39.4204 76.2301C39.5786 76.3927 39.6963 76.59 39.7643 76.8064C39.8322 77.0227 39.8484 77.252 39.8115 77.4758L39.4349 79.7787L41.3034 78.7504C41.5131 78.6243 41.7539 78.5591 41.9986 78.5621ZM13.1609 50.6224C12.9182 50.6236 12.6792 50.5638 12.4656 50.4486L8.6853 48.3484L4.90496 50.4486C4.67123 50.5755 4.40703 50.6357 4.14136 50.6225C3.87568 50.6092 3.61878 50.523 3.39884 50.3734C3.1789 50.2238 3.00441 50.0165 2.89451 49.7743C2.78461 49.532 2.74354 49.2642 2.77581 49.0001L3.5145 44.4811L0.400429 41.2946C0.219236 41.1058 0.0925817 40.8715 0.0339248 40.6164C-0.024732 40.3614 -0.0132 40.0952 0.0672958 39.8462C0.152376 39.5935 0.305587 39.3691 0.510042 39.1979C0.714497 39.0267 0.962258 38.9152 1.22602 38.8758L5.46984 38.224L7.36725 34.1685C7.48246 33.9156 7.66799 33.7012 7.90169 33.5509C8.1354 33.4005 8.40741 33.3206 8.6853 33.3206C8.96318 33.3206 9.2352 33.4005 9.4689 33.5509C9.70261 33.7012 9.88813 33.9156 10.0033 34.1685L11.9008 38.224L16.1446 38.8758C16.4083 38.9152 16.6561 39.0267 16.8606 39.1979C17.065 39.3691 17.2182 39.5935 17.3033 39.8462C17.3838 40.0952 17.3953 40.3614 17.3367 40.6164C17.278 40.8715 17.1514 41.1058 16.9702 41.2946L13.8561 44.4811L14.5948 49.0001C14.645 49.2731 14.6157 49.5547 14.5104 49.8115C14.4051 50.0683 14.2283 50.2894 14.0009 50.4486C13.7449 50.59 13.452 50.6506 13.1609 50.6224ZM8.6853 45.2488C8.93003 45.2458 9.17076 45.311 9.38053 45.4371L11.249 46.4654L10.8724 44.1625C10.8355 43.9387 10.8517 43.7095 10.9196 43.4931C10.9875 43.2768 11.1053 43.0794 11.2635 42.9169L12.9146 41.2222L10.6986 40.8891C10.4651 40.8528 10.244 40.7599 10.0547 40.6185C9.86532 40.4771 9.71344 40.2915 9.61228 40.078L8.6853 38.0937L7.75832 40.078C7.65715 40.2915 7.50527 40.4771 7.31593 40.6185C7.12658 40.7599 6.90551 40.8528 6.67202 40.8891L4.45596 41.2222L6.10714 42.9169C6.26528 43.0794 6.38306 43.2768 6.45098 43.4931C6.51891 43.7095 6.53508 43.9387 6.49821 44.1625L6.12162 46.4654L7.99006 45.4371C8.19983 45.311 8.44057 45.2458 8.6853 45.2488ZM79.7874 50.6224C79.5448 50.6236 79.3057 50.5638 79.0922 50.4486L75.3119 48.3484L71.5315 50.4486C71.2978 50.5755 71.0336 50.6357 70.7679 50.6225C70.5023 50.6092 70.2454 50.523 70.0254 50.3734C69.8055 50.2238 69.631 50.0165 69.5211 49.7743C69.4112 49.532 69.3701 49.2642 69.4024 49.0001L70.1411 44.4811L67.027 41.2946C66.8458 41.1058 66.7192 40.8715 66.6605 40.6164C66.6018 40.3614 66.6134 40.0952 66.6939 39.8462C66.7789 39.5935 66.9322 39.3691 67.1366 39.1979C67.3411 39.0267 67.5888 38.9152 67.8526 38.8758L72.0964 38.224L73.9938 34.1685C74.109 33.9156 74.2946 33.7012 74.5283 33.5509C74.762 33.4005 75.034 33.3206 75.3119 33.3206C75.5898 33.3206 75.8618 33.4005 76.0955 33.5509C76.3292 33.7012 76.5147 33.9156 76.6299 34.1685L78.5273 38.224L82.7711 38.8758C83.0349 38.9152 83.2827 39.0267 83.4871 39.1979C83.6916 39.3691 83.8448 39.5935 83.9299 39.8462C84.0104 40.0952 84.0219 40.3614 83.9632 40.6164C83.9046 40.8715 83.7779 41.1058 83.5967 41.2946L80.4827 44.4811L81.2214 49.0001C81.2715 49.2731 81.2422 49.5547 81.137 49.8115C81.0317 50.0683 80.8549 50.2894 80.6275 50.4486C80.3715 50.59 80.0786 50.6506 79.7874 50.6224ZM75.3119 45.2488C75.5566 45.2458 75.7973 45.311 76.0071 45.4371L77.8755 46.4654L77.499 44.1625C77.4621 43.9387 77.4783 43.7095 77.5462 43.4931C77.6141 43.2768 77.7319 43.0794 77.89 42.9169L79.5412 41.2222L77.3251 40.8891C77.0917 40.8528 76.8706 40.7599 76.6812 40.6185C76.4919 40.4771 76.34 40.2915 76.2388 40.078L75.3119 38.0937L74.3849 40.078C74.2837 40.2915 74.1318 40.4771 73.9425 40.6185C73.7532 40.7599 73.5321 40.8528 73.2986 40.8891L71.0825 41.2222L72.7337 42.9169C72.8919 43.0794 73.0096 43.2768 73.0776 43.4931C73.1455 43.7095 73.1617 43.9387 73.1248 44.1625L72.7482 46.4654L74.6166 45.4371C74.8264 45.311 75.0671 45.2458 75.3119 45.2488ZM69.6486 27.4479C69.406 27.4491 69.1669 27.3893 68.9534 27.2741L65.173 25.1739L61.3927 27.2741C61.159 27.4011 60.8948 27.4612 60.6291 27.448C60.3634 27.4347 60.1065 27.3486 59.8866 27.199C59.6666 27.0493 59.4922 26.842 59.3823 26.5998C59.2724 26.3576 59.2313 26.0897 59.2636 25.8257L60.0022 21.3067L56.8882 18.1202C56.707 17.9314 56.5803 17.697 56.5217 17.442C56.463 17.1869 56.4745 16.9208 56.555 16.6718C56.6401 16.419 56.7933 16.1947 56.9978 16.0234C57.2022 15.8522 57.45 15.7407 57.7138 15.7013L61.9576 15.0496L63.855 10.994C63.9702 10.7412 64.1557 10.5268 64.3894 10.3764C64.6231 10.2261 64.8952 10.1462 65.173 10.1462C65.4509 10.1462 65.7229 10.2261 65.9566 10.3764C66.1904 10.5268 66.3759 10.7412 66.4911 10.994L68.3885 15.0496L72.6323 15.7013C72.8961 15.7407 73.1438 15.8522 73.3483 16.0234C73.5528 16.1947 73.706 16.419 73.791 16.6718C73.8715 16.9208 73.8831 17.1869 73.8244 17.442C73.7658 17.697 73.6391 17.9314 73.4579 18.1202L70.3438 21.3067L71.0825 25.8257C71.1327 26.0986 71.1034 26.3802 70.9981 26.637C70.8929 26.8938 70.716 27.1149 70.4887 27.2741C70.2326 27.4155 69.9398 27.4761 69.6486 27.4479ZM65.173 22.0743C65.4178 22.0713 65.6585 22.1365 65.8683 22.2626L67.7367 23.291L67.3601 20.988C67.3233 20.7643 67.3394 20.535 67.4074 20.3186C67.4753 20.1023 67.5931 19.9049 67.7512 19.7424L69.4024 18.0478L67.1863 17.7146C66.9528 17.6783 66.7318 17.5854 66.5424 17.444C66.3531 17.3026 66.2012 17.1171 66.1 16.9035L65.173 14.9192L64.2461 16.9035C64.1449 17.1171 63.993 17.3026 63.8037 17.444C63.6143 17.5854 63.3933 17.6783 63.1598 17.7146L60.9437 18.0478L62.5949 19.7424C62.753 19.9049 62.8708 20.1023 62.9387 20.3186C63.0067 20.535 63.0228 20.7643 62.986 20.988L62.6094 23.291L64.4778 22.2626C64.6876 22.1365 64.9283 22.0713 65.173 22.0743ZM23.2997 27.4479C23.057 27.4491 22.818 27.3893 22.6045 27.2741L18.8241 25.1739L15.0438 27.2741C14.8101 27.4011 14.5459 27.4612 14.2802 27.448C14.0145 27.4347 13.7576 27.3486 13.5377 27.199C13.3177 27.0493 13.1432 26.842 13.0333 26.5998C12.9234 26.3576 12.8824 26.0897 12.9146 25.8257L13.6533 21.3067L10.5393 18.1202C10.3581 17.9314 10.2314 17.697 10.1728 17.442C10.1141 17.1869 10.1256 16.9208 10.2061 16.6718C10.2912 16.419 10.4444 16.1947 10.6489 16.0234C10.8533 15.8522 11.1011 15.7407 11.3648 15.7013L15.6087 15.0496L17.5061 10.994C17.6213 10.7412 17.8068 10.5268 18.0405 10.3764C18.2742 10.2261 18.5462 10.1462 18.8241 10.1462C19.102 10.1462 19.374 10.2261 19.6077 10.3764C19.8414 10.5268 20.027 10.7412 20.1422 10.994L22.0396 15.0496L26.2834 15.7013C26.5472 15.7407 26.7949 15.8522 26.9994 16.0234C27.2038 16.1947 27.357 16.419 27.4421 16.6718C27.5226 16.9208 27.5342 17.1869 27.4755 17.442C27.4168 17.697 27.2902 17.9314 27.109 18.1202L23.9949 21.3067L24.7336 25.8257C24.7838 26.0986 24.7545 26.3802 24.6492 26.637C24.5439 26.8938 24.3671 27.1149 24.1398 27.2741C23.8837 27.4155 23.5908 27.4761 23.2997 27.4479ZM18.8241 22.0743C19.0689 22.0713 19.3096 22.1365 19.5194 22.2626L21.3878 23.291L21.0112 20.988C20.9743 20.7643 20.9905 20.535 21.0584 20.3186C21.1264 20.1023 21.2441 19.9049 21.4023 19.7424L23.0535 18.0478L20.8374 17.7146C20.6039 17.6783 20.3828 17.5854 20.1935 17.444C20.0042 17.3026 19.8523 17.1171 19.7511 16.9035L18.8241 14.9192L17.8971 16.9035C17.796 17.1171 17.6441 17.3026 17.4548 17.444C17.2654 17.5854 17.0443 17.6783 16.8108 17.7146L14.5948 18.0478L16.246 19.7424C16.4041 19.9049 16.5219 20.1023 16.5898 20.3186C16.6577 20.535 16.6739 20.7643 16.637 20.988L16.2604 23.291L18.1289 22.2626C18.3387 22.1365 18.5794 22.0713 18.8241 22.0743ZM24.7481 72.3484C24.5055 72.3496 24.2664 72.2899 24.0529 72.1746L20.2725 70.0744L16.4922 72.1746C16.2585 72.3016 15.9943 72.3618 15.7286 72.3485C15.4629 72.3353 15.206 72.2491 14.9861 72.0995C14.7661 71.9499 14.5916 71.7426 14.4817 71.5003C14.3718 71.2581 14.3308 70.9902 14.363 70.7262L15.1017 66.2072L11.9877 63.0207C11.8065 62.8319 11.6798 62.5975 11.6212 62.3425C11.5625 62.0874 11.574 61.8213 11.6545 61.5723C11.7396 61.3195 11.8928 61.0952 12.0973 60.924C12.3017 60.7527 12.5495 60.6413 12.8132 60.6019L17.0571 59.9501L18.9545 55.8946C19.0697 55.6417 19.2552 55.4273 19.4889 55.2769C19.7226 55.1266 19.9946 55.0467 20.2725 55.0467C20.5504 55.0467 20.8224 55.1266 21.0561 55.2769C21.2898 55.4273 21.4754 55.6417 21.5906 55.8946L23.488 59.9501L27.7318 60.6019C27.9956 60.6413 28.2433 60.7527 28.4478 60.924C28.6522 61.0952 28.8055 61.3195 28.8905 61.5723C28.971 61.8213 28.9826 62.0874 28.9239 62.3425C28.8652 62.5975 28.7386 62.8319 28.5574 63.0207L25.4433 66.2072L26.182 70.7262C26.2322 70.9992 26.2029 71.2808 26.0976 71.5375C25.9923 71.7943 25.8155 72.0154 25.5882 72.1746C25.3321 72.316 25.0392 72.3766 24.7481 72.3484ZM20.2725 66.9748C20.5173 66.9718 20.758 67.037 20.9678 67.1631L22.8362 68.1915L22.4596 65.8885C22.4227 65.6648 22.4389 65.4355 22.5068 65.2192C22.5748 65.0028 22.6925 64.8054 22.8507 64.6429L24.5019 62.9483L22.2858 62.6151C22.0523 62.5788 21.8312 62.4859 21.6419 62.3445C21.4526 62.2032 21.3007 62.0176 21.1995 61.804L20.2725 59.8197L19.3456 61.804C19.2444 62.0176 19.0925 62.2032 18.9032 62.3445C18.7138 62.4859 18.4927 62.5788 18.2592 62.6151L16.0432 62.9483L17.6944 64.6429C17.8525 64.8054 17.9703 65.0028 18.0382 65.2192C18.1061 65.4355 18.1223 65.6648 18.0854 65.8885L17.7089 68.1915L19.5773 67.1631C19.7871 67.037 20.0278 66.9718 20.2725 66.9748ZM69.6486 73.7968C69.406 73.798 69.1669 73.7383 68.9534 73.623L65.173 71.5228L61.3927 73.623C61.159 73.75 60.8948 73.8102 60.6291 73.7969C60.3634 73.7837 60.1065 73.6975 59.8866 73.5479C59.6666 73.3983 59.4922 73.191 59.3823 72.9487C59.2724 72.7065 59.2313 72.4387 59.2636 72.1746L60.0022 67.6556L56.8882 64.4691C56.707 64.2803 56.5803 64.0459 56.5217 63.7909C56.463 63.5359 56.4745 63.2697 56.555 63.0207C56.6401 62.7679 56.7933 62.5436 56.9978 62.3724C57.2022 62.2011 57.45 62.0897 57.7138 62.0503L61.9576 61.3985L63.855 57.343C63.9702 57.0901 64.1557 56.8757 64.3894 56.7253C64.6231 56.575 64.8952 56.4951 65.173 56.4951C65.4509 56.4951 65.7229 56.575 65.9566 56.7253C66.1904 56.8757 66.3759 57.0901 66.4911 57.343L68.3885 61.3985L72.6323 62.0503C72.8961 62.0897 73.1438 62.2011 73.3483 62.3724C73.5528 62.5436 73.706 62.7679 73.791 63.0207C73.8715 63.2697 73.8831 63.5359 73.8244 63.7909C73.7658 64.0459 73.6391 64.2803 73.4579 64.4691L70.3438 67.6556L71.0825 72.1746C71.1327 72.4476 71.1034 72.7292 70.9981 72.9859C70.8929 73.2427 70.716 73.4639 70.4887 73.623C70.2326 73.7645 69.9398 73.825 69.6486 73.7968ZM65.173 68.4232C65.4178 68.4202 65.6585 68.4854 65.8683 68.6115L67.7367 69.6399L67.3601 67.3369C67.3233 67.1132 67.3394 66.8839 67.4074 66.6676C67.4753 66.4512 67.5931 66.2538 67.7512 66.0913L69.4024 64.3967L67.1863 64.0635C66.9528 64.0272 66.7318 63.9343 66.5424 63.7929C66.3531 63.6516 66.2012 63.466 66.1 63.2524L65.173 61.2681L64.2461 63.2524C64.1449 63.466 63.993 63.6516 63.8037 63.7929C63.6143 63.9343 63.3933 64.0272 63.1598 64.0635L60.9437 64.3967L62.5949 66.0913C62.753 66.2538 62.8708 66.4512 62.9387 66.6676C63.0067 66.8839 63.0228 67.1132 62.986 67.3369L62.6094 69.6399L64.4778 68.6115C64.6876 68.4854 64.9283 68.4202 65.173 68.4232ZM50.689 56.416H33.3082C32.1557 56.416 31.0505 55.9582 30.2356 55.1433C29.4207 54.3284 28.963 53.2232 28.963 52.0708V40.4835C28.963 39.3311 29.4207 38.2259 30.2356 37.411C31.0505 36.5961 32.1557 36.1383 33.3082 36.1383H50.689C51.8414 36.1383 52.9466 36.5961 53.7615 37.411C54.5764 38.2259 55.0342 39.3311 55.0342 40.4835V52.0708C55.0342 53.2232 54.5764 54.3284 53.7615 55.1433C52.9466 55.9582 51.8414 56.416 50.689 56.416ZM33.3082 39.0351C32.924 39.0351 32.5556 39.1877 32.284 39.4594C32.0124 39.731 31.8598 40.0994 31.8598 40.4835V52.0708C31.8598 52.4549 32.0124 52.8233 32.284 53.0949C32.5556 53.3666 32.924 53.5192 33.3082 53.5192H50.689C51.0731 53.5192 51.4416 53.3666 51.7132 53.0949C51.9848 52.8233 52.1374 52.4549 52.1374 52.0708V40.4835C52.1374 40.0994 51.9848 39.731 51.7132 39.4594C51.4416 39.1877 51.0731 39.0351 50.689 39.0351H33.3082Z" fill="url(#paint0_linear_200_246)"/>
<path d="M49.2405 39.0353H34.7565C34.3724 39.0353 34.004 38.8827 33.7323 38.6111C33.4607 38.3395 33.3081 37.971 33.3081 37.5869V33.2417C33.3081 30.9368 34.2237 28.7264 35.8535 27.0966C37.4832 25.4669 39.6937 24.5513 41.9985 24.5513C44.3034 24.5513 46.5138 25.4669 48.1436 27.0966C49.7734 28.7264 50.6889 30.9368 50.6889 33.2417V37.5869C50.6889 37.971 50.5364 38.3395 50.2647 38.6111C49.9931 38.8827 49.6247 39.0353 49.2405 39.0353ZM36.2049 36.1385H47.7921V33.2417C47.7921 31.7051 47.1817 30.2315 46.0952 29.145C45.0087 28.0585 43.5351 27.4481 41.9985 27.4481C40.462 27.4481 38.9883 28.0585 37.9018 29.145C36.8153 30.2315 36.2049 31.7051 36.2049 33.2417V36.1385ZM40.5501 50.6225C40.3595 50.6236 40.1705 50.5871 39.9941 50.515C39.8176 50.4429 39.6571 50.3367 39.5218 50.2025L36.625 47.3057C36.3522 47.033 36.199 46.663 36.199 46.2773C36.199 45.8916 36.3522 45.5217 36.625 45.249C36.8977 44.9762 37.2676 44.823 37.6533 44.823C38.039 44.823 38.4089 44.9762 38.6817 45.249L40.5501 47.1319L45.3154 42.3522C45.5881 42.0794 45.958 41.9262 46.3437 41.9262C46.7295 41.9262 47.0994 42.0794 47.3721 42.3522C47.6448 42.6249 47.7981 42.9948 47.7981 43.3805C47.7981 43.7662 47.6448 44.1361 47.3721 44.4089L41.5785 50.2025C41.4432 50.3367 41.2826 50.4429 41.1062 50.515C40.9297 50.5871 40.7407 50.6236 40.5501 50.6225Z" fill="url(#paint1_linear_200_246)"/>
<defs>
<linearGradient id="paint0_linear_200_246" x1="41.9986" y1="0.00732422" x2="41.9986" y2="83.9424" gradientUnits="userSpaceOnUse">
<stop stop-color="#42EFFF"/>
<stop offset="1" stop-color="#1B96D8"/>
</linearGradient>
<linearGradient id="paint1_linear_200_246" x1="41.9985" y1="24.5513" x2="41.9985" y2="50.6226" gradientUnits="userSpaceOnUse">
<stop stop-color="#42EFFF"/>
<stop offset="1" stop-color="#1B96D8"/>
</linearGradient>
</defs>
</svg>
