<svg width="24" height="24" viewBox="0 0 24 24" fill="none" xmlns="http://www.w3.org/2000/svg">
<path d="M12 0C5.373 0 0 5.373 0 12C0 18.627 5.373 24 12 24C18.627 24 24 18.627 24 12C24 5.373 18.627 0 12 0ZM10.5 10.5C10.5 10.1022 10.658 9.72064 10.9393 9.43934C11.2206 9.15804 11.6022 9 12 9C12.3978 9 12.7794 9.15804 13.0607 9.43934C13.342 9.72064 13.5 10.1022 13.5 10.5V18C13.5 18.3978 13.342 18.7794 13.0607 19.0607C12.7794 19.342 12.3978 19.5 12 19.5C11.6022 19.5 11.2206 19.342 10.9393 19.0607C10.658 18.7794 10.5 18.3978 10.5 18V10.5ZM12 7.524C11.803 7.52395 11.6079 7.48509 11.4259 7.40965C11.2438 7.3342 11.0785 7.22364 10.9392 7.08429C10.7999 6.94493 10.6894 6.7795 10.6141 6.59745C10.5387 6.41539 10.5 6.22028 10.5 6.02325C10.5 5.82622 10.5389 5.63112 10.6144 5.44911C10.6898 5.2671 10.8004 5.10172 10.9397 4.96243C11.0791 4.82315 11.2445 4.71267 11.4266 4.63732C11.6086 4.56196 11.8037 4.5232 12.0007 4.52325C12.3987 4.52335 12.7803 4.68152 13.0616 4.96297C13.3429 5.24441 13.5008 5.62608 13.5007 6.024C13.5007 6.42192 13.3425 6.80351 13.061 7.08482C12.7796 7.36612 12.3979 7.5241 12 7.524Z" fill="url(#paint0_linear_176_432)"/>
<defs>
<linearGradient id="paint0_linear_176_432" x1="12" y1="0" x2="12" y2="24" gradientUnits="userSpaceOnUse">
<stop stop-color="#42EFFF"/>
<stop offset="1" stop-color="#1B96D8"/>
</linearGradient>
</defs>
</svg>
