<svg width="44" height="43" viewBox="0 0 44 43" fill="none" xmlns="http://www.w3.org/2000/svg">
<path d="M37.7143 0H6.28571C2.81286 0 0 2.85493 0 6.37972V30.6705C0 34.1953 2.81286 37.0502 6.28571 37.0502H11V42.4252C11 42.7441 11.2671 43.0153 11.5814 42.9993C15.3843 42.776 18.6057 40.3996 20.1143 37.0502H37.7143C41.1871 37.0502 44 34.1953 44 30.6705V6.37972C44 2.85493 41.1871 0 37.7143 0ZM23.0057 27.9894C22.8643 28.1346 22.7071 28.2287 22.5343 28.3084C22.3614 28.3722 22.1886 28.4201 22 28.4201C21.6229 28.4201 21.2614 28.2606 20.9943 27.9878C20.7429 27.7343 20.5857 27.3515 20.5857 26.983C20.5857 26.6018 20.7429 26.2334 20.9943 25.9623C21.3871 25.5636 22.0157 25.436 22.5343 25.6592C22.7071 25.723 22.8643 25.8347 23.0057 25.9623C23.2571 26.2334 23.4143 26.6003 23.4143 26.983C23.4143 27.3531 23.2571 27.7358 23.0057 27.9894ZM24.7374 20.2157C23.9219 20.6384 23.4143 21.4311 23.4143 22.2844C23.4143 23.0771 22.781 23.7198 22 23.7198C21.219 23.7198 20.5857 23.0771 20.5857 22.2844C20.5857 20.3449 21.6841 18.573 23.452 17.6591C24.5614 17.0865 25.5059 15.726 25.1177 13.9796C24.8521 12.7866 23.9171 11.8471 22.737 11.5872C21.0304 11.2092 19.6931 12.1709 19.1353 13.2937C18.909 13.7483 18.7943 14.2411 18.7943 14.7563C18.7943 15.549 18.161 16.1917 17.38 16.1917C16.599 16.1917 15.9657 15.549 15.9657 14.7563C15.9657 13.8009 16.1889 12.8488 16.61 12.0003C17.8514 9.5026 20.6171 8.17083 23.3373 8.78009C25.5876 9.27612 27.368 11.0688 27.8756 13.3448C28.4931 16.1152 27.203 18.9414 24.7374 20.2157Z" fill="url(#paint0_linear_277_278)"/>
<defs>
<linearGradient id="paint0_linear_277_278" x1="22" y1="0" x2="22" y2="43" gradientUnits="userSpaceOnUse">
<stop stop-color="#42EFFF"/>
<stop offset="1" stop-color="#1B96D8"/>
</linearGradient>
</defs>
</svg>
