<svg width="38" height="44" viewBox="0 0 38 44" fill="none" xmlns="http://www.w3.org/2000/svg">
<path d="M2.71429 38.5H5.42857V41.25C5.42857 41.9793 5.71454 42.6788 6.22357 43.1945C6.73259 43.7103 7.42298 44 8.14286 44H35.2857C36.0056 44 36.696 43.7103 37.205 43.1945C37.714 42.6788 38 41.9793 38 41.25V8.25C38 7.52065 37.714 6.82118 37.205 6.30546C36.696 5.78973 36.0056 5.5 35.2857 5.5H32.5714V2.75C32.5714 2.02065 32.2855 1.32118 31.7764 0.805456C31.2674 0.289731 30.577 0 29.8571 0L2.71429 0C1.99441 0 1.30402 0.289731 0.794996 0.805456C0.285968 1.32118 0 2.02065 0 2.75V35.75C0 36.4793 0.285968 37.1788 0.794996 37.6945C1.30402 38.2103 1.99441 38.5 2.71429 38.5ZM35.2857 8.25V41.25H8.14286V38.5H29.8571C30.577 38.5 31.2674 38.2103 31.7764 37.6945C32.2855 37.1788 32.5714 36.4793 32.5714 35.75V8.25H35.2857ZM25.7857 5.5C26.1457 5.5 26.4908 5.64487 26.7454 5.90273C26.9999 6.16059 27.1429 6.51033 27.1429 6.875C27.1429 7.23967 26.9999 7.58941 26.7454 7.84727C26.4908 8.10513 26.1457 8.25 25.7857 8.25H14.8146C14.4546 8.25 14.1094 8.10513 13.8549 7.84727C13.6004 7.58941 13.4574 7.23967 13.4574 6.875C13.4574 6.51033 13.6004 6.16059 13.8549 5.90273C14.1094 5.64487 14.4546 5.5 14.8146 5.5H25.7857ZM6.67171 13.75H25.7857C26.1457 13.75 26.4908 13.8949 26.7454 14.1527C26.9999 14.4106 27.1429 14.7603 27.1429 15.125C27.1429 15.4897 26.9999 15.8394 26.7454 16.0973C26.4908 16.3551 26.1457 16.5 25.7857 16.5H6.67171C6.31178 16.5 5.96658 16.3551 5.71207 16.0973C5.45756 15.8394 5.31457 15.4897 5.31457 15.125C5.31457 14.7603 5.45756 14.4106 5.71207 14.1527C5.96658 13.8949 6.31178 13.75 6.67171 13.75ZM6.67171 22H25.7857C26.1457 22 26.4908 22.1449 26.7454 22.4027C26.9999 22.6606 27.1429 23.0103 27.1429 23.375C27.1429 23.7397 26.9999 24.0894 26.7454 24.3473C26.4908 24.6051 26.1457 24.75 25.7857 24.75H6.67171C6.31178 24.75 5.96658 24.6051 5.71207 24.3473C5.45756 24.0894 5.31457 23.7397 5.31457 23.375C5.31457 23.0103 5.45756 22.6606 5.71207 22.4027C5.96658 22.1449 6.31178 22 6.67171 22ZM6.67171 30.25H25.7857C26.1457 30.25 26.4908 30.3949 26.7454 30.6527C26.9999 30.9106 27.1429 31.2603 27.1429 31.625C27.1429 31.9897 26.9999 32.3394 26.7454 32.5973C26.4908 32.8551 26.1457 33 25.7857 33H6.67171C6.31178 33 5.96658 32.8551 5.71207 32.5973C5.45756 32.3394 5.31457 31.9897 5.31457 31.625C5.31457 31.2603 5.45756 30.9106 5.71207 30.6527C5.96658 30.3949 6.31178 30.25 6.67171 30.25Z" fill="url(#paint0_linear_277_198)"/>
<defs>
<linearGradient id="paint0_linear_277_198" x1="19" y1="0" x2="19" y2="44" gradientUnits="userSpaceOnUse">
<stop stop-color="#42EFFF"/>
<stop offset="1" stop-color="#1B96D8"/>
</linearGradient>
</defs>
</svg>
