<svg width="42" height="42" viewBox="0 0 42 42" fill="none" xmlns="http://www.w3.org/2000/svg">
<path d="M11.8278 41.5267C12.1307 41.8297 12.5415 41.9999 12.9699 42H29.0285C29.4565 42 29.8685 41.8304 30.1705 41.5267L41.5251 30.1722C41.6757 30.0225 41.7952 29.8446 41.8767 29.6486C41.9582 29.4526 42.0001 29.2424 42 29.0301V12.9715C42.0002 12.7594 41.9585 12.5493 41.8773 12.3533C41.7961 12.1573 41.6769 11.9793 41.5267 11.8295L30.1722 0.474924C30.0225 0.324332 29.8446 0.204839 29.6486 0.123329C29.4526 0.0418195 29.2424 -9.51665e-05 29.0301 8.59412e-07H12.9715C12.7594 -0.000218304 12.5493 0.0414823 12.3533 0.122707C12.1573 0.203932 11.9793 0.323081 11.8295 0.473309L0.474923 11.8278C0.324332 11.9775 0.204838 12.1554 0.123329 12.3514C0.0418188 12.5474 -9.58613e-05 12.7576 1.64622e-07 12.9699V29.0285C1.64622e-07 29.4565 0.169616 29.8685 0.473308 30.1705L11.8278 41.5267ZM21 35.5385C20.3571 35.5382 19.7407 35.2827 19.2863 34.8279C18.8319 34.3732 18.5767 33.7566 18.5769 33.1138C18.5771 32.4709 18.8327 31.8545 19.2874 31.4001C19.7422 30.9456 20.3588 30.6905 21.0016 30.6907C21.3199 30.6908 21.6351 30.7536 21.9291 30.8755C22.2232 30.9974 22.4903 31.176 22.7153 31.4012C22.9403 31.6264 23.1188 31.8936 23.2405 32.1877C23.3622 32.4819 23.4248 32.7971 23.4247 33.1154C23.4246 33.4337 23.3618 33.7489 23.2399 34.0429C23.118 34.3369 22.9393 34.6041 22.7142 34.8291C22.489 35.0541 22.2218 35.2325 21.9276 35.3543C21.6335 35.476 21.3183 35.5386 21 35.5385ZM21 8.07692C21.4112 8.07684 21.818 8.16208 22.1945 8.32726C22.5711 8.49244 22.9093 8.73396 23.1878 9.03655C23.4662 9.33914 23.6789 9.69621 23.8122 10.0852C23.9456 10.4742 23.9968 10.8866 23.9626 11.2964L22.6768 26.7201C22.6602 26.9221 22.5682 27.1104 22.4192 27.2478C22.2702 27.3851 22.075 27.4614 21.8723 27.4615H20.1277C19.9253 27.4614 19.7303 27.3854 19.5813 27.2483C19.4323 27.1113 19.3402 26.9234 19.3232 26.7217L18.0374 11.298C18.003 10.8881 18.054 10.4755 18.1873 10.0863C18.3205 9.69714 18.5331 9.33986 18.8116 9.0371C19.0901 8.73433 19.4283 8.49266 19.805 8.32738C20.1817 8.16211 20.5886 8.07682 21 8.07692Z" fill="white"/>
</svg>
