<svg width="224" height="167" viewBox="0 0 224 167" fill="none" xmlns="http://www.w3.org/2000/svg">
<g opacity="0.2" filter="url(#filter0_f_172_234)">
<path d="M111.528 59.573C115.778 59.573 119.932 58.3129 123.465 55.952C126.999 53.591 129.753 50.2354 131.379 46.3093C133.005 42.3832 133.431 38.063 132.601 33.8951C131.772 29.7272 129.726 25.8988 126.721 22.8939C123.716 19.889 119.888 17.8426 115.72 17.0136C111.552 16.1845 107.232 16.61 103.306 18.2363C99.3797 19.8625 96.024 22.6164 93.6631 26.1498C91.3021 29.6832 90.042 33.8373 90.042 38.0869C90.048 43.7835 92.3136 49.2451 96.3417 53.2733C100.37 57.3014 105.832 59.5671 111.528 59.573ZM184.653 38.3126C187.948 38.3126 191.168 37.3357 193.907 35.5055C196.646 33.6753 198.781 31.0739 200.042 28.0304C201.302 24.9868 201.632 21.6378 200.99 18.4068C200.347 15.1758 198.761 12.2079 196.431 9.87852C194.102 7.5491 191.134 5.96274 187.903 5.32005C184.672 4.67737 181.323 5.00722 178.279 6.26789C175.236 7.52857 172.634 9.66344 170.804 12.4026C168.974 15.1417 167.997 18.362 167.997 21.6563C168.002 26.0724 169.758 30.3064 172.881 33.429C176.003 36.5517 180.237 38.308 184.653 38.3126ZM162.084 122.768C159.495 122.768 156.964 123.535 154.811 124.974C152.659 126.412 150.981 128.457 149.99 130.848C148.999 133.24 148.74 135.872 149.245 138.412C149.75 140.951 150.997 143.283 152.828 145.114C154.658 146.945 156.991 148.192 159.53 148.697C162.069 149.202 164.701 148.943 167.093 147.952C169.485 146.961 171.53 145.283 172.968 143.13C174.406 140.978 175.174 138.447 175.174 135.858C175.172 132.387 173.792 129.059 171.337 126.604C168.883 124.15 165.555 122.77 162.084 122.768ZM164.792 139.92C164.792 140.639 164.507 141.328 163.999 141.836C163.491 142.343 162.802 142.629 162.084 142.629C161.366 142.629 160.677 142.343 160.169 141.836C159.661 141.328 159.375 140.639 159.375 139.92V135.677C159.375 134.959 159.661 134.27 160.169 133.762C160.677 133.254 161.366 132.969 162.084 132.969C162.802 132.969 163.491 133.254 163.999 133.762C164.507 134.27 164.792 134.959 164.792 135.677V139.92ZM169.396 118.886V115.455C169.396 113.516 168.626 111.656 167.255 110.284C165.883 108.913 164.023 108.143 162.084 108.143C160.144 108.143 158.284 108.913 156.913 110.284C155.542 111.656 154.771 113.516 154.771 115.455V118.886C157.076 117.874 159.566 117.351 162.084 117.351C164.601 117.351 167.091 117.874 169.396 118.886Z" fill="#42BDFF"/>
<path d="M162.084 95.1427C160.392 95.1506 158.703 95.2713 157.028 95.5038C149.063 96.7258 141.808 100.785 136.6 106.934C131.391 113.082 128.58 120.906 128.685 128.964C128.789 137.021 131.802 144.769 137.168 150.781C142.534 156.792 149.892 160.662 157.886 161.678C159.278 161.859 160.68 161.95 162.084 161.948C170.943 161.948 179.439 158.429 185.703 152.165C191.967 145.901 195.486 137.405 195.486 128.546C195.486 119.687 191.967 111.19 185.703 104.926C179.439 98.6619 170.943 95.1427 162.084 95.1427ZM162.084 154.365C158.382 154.369 154.765 153.262 151.7 151.187C148.635 149.112 146.264 146.165 144.892 142.727C143.521 139.289 143.213 135.519 144.009 131.904C144.804 128.289 146.667 124.996 149.354 122.452V115.455C149.354 112.079 150.696 108.842 153.083 106.454C155.47 104.067 158.708 102.726 162.084 102.726C165.46 102.726 168.697 104.067 171.085 106.454C173.472 108.842 174.813 112.079 174.813 115.455V122.452C177.501 124.996 179.363 128.289 180.158 131.904C180.954 135.519 180.646 139.289 179.275 142.727C177.904 146.165 175.532 149.112 172.467 151.187C169.402 153.262 165.785 154.369 162.084 154.365ZM71.8057 75.5975V66.2086C71.8038 62.5362 70.4263 58.9978 67.9448 56.2906C65.4633 53.5835 62.0578 51.9042 58.3994 51.5836C55.9686 54.5338 52.9151 56.9096 49.4579 58.5406C46.0007 60.1716 42.2255 61.0175 38.4028 61.0175C34.5802 61.0175 30.8049 60.1716 27.3477 58.5406C23.8905 56.9096 20.8371 54.5338 18.4063 51.5836C14.7466 51.9215 11.3446 53.6123 8.86534 56.3253C6.38606 59.0383 5.0078 62.5785 5 66.2537V97.7156H63.6807V93.8336C63.6862 90.3951 64.4121 86.9958 65.8115 83.8549C67.2109 80.714 69.2528 77.9011 71.8057 75.5975Z" fill="#42BDFF"/>
<path d="M132.743 103.132C138.205 96.8381 145.549 92.4698 153.687 90.6738C152.991 86.4492 150.885 82.5845 147.714 79.708C144.542 76.8315 140.491 75.1124 136.219 74.83C133.241 78.5093 129.478 81.4767 125.206 83.515C120.934 85.5534 116.261 86.6112 111.528 86.6112C106.794 86.6112 102.121 85.5534 97.8487 83.515C93.5767 81.4767 89.8143 78.5093 86.8365 74.83C82.0252 75.1689 77.5208 77.3174 74.2295 80.8431C70.9382 84.3689 69.1044 89.0103 69.0969 93.8335V133.827H123.625C123.389 132.076 123.269 130.312 123.264 128.545C123.269 119.211 126.634 110.19 132.743 103.132ZM204.649 51.5834C202.218 54.5337 199.165 56.9095 195.708 58.5405C192.251 60.1715 188.475 61.0174 184.653 61.0174C180.83 61.0174 177.055 60.1715 173.598 58.5405C170.14 56.9095 167.087 54.5337 164.656 51.5834C161.001 51.9113 157.599 53.5928 155.119 56.2983C152.639 59.0038 151.259 62.5382 151.25 66.2085V75.5522C155.42 79.2826 158.178 84.3358 159.059 89.8613C160.052 89.771 161.09 89.7259 162.083 89.7259C170.59 89.7187 178.859 92.5281 185.601 97.7155H218.056V66.2536C218.048 62.5784 216.669 59.0382 214.19 56.3252C211.711 53.6122 208.309 51.9214 204.649 51.5834ZM38.4024 38.3126C41.6967 38.3126 44.917 37.3357 47.6561 35.5055C50.3952 33.6753 52.5301 31.0739 53.7908 28.0304C55.0515 24.9868 55.3813 21.6378 54.7386 18.4068C54.0959 15.1758 52.5096 12.2079 50.1802 9.87852C47.8507 7.5491 44.8829 5.96274 41.6519 5.32005C38.4209 4.67737 35.0718 5.00722 32.0283 6.26789C28.9848 7.52857 26.3834 9.66344 24.5532 12.4026C22.723 15.1417 21.7461 18.362 21.7461 21.6563C21.7506 26.0724 23.5069 30.3064 26.6296 33.429C29.7523 36.5517 33.9863 38.308 38.4024 38.3126Z" fill="#42BDFF"/>
</g>
<defs>
<filter id="filter0_f_172_234" x="0" y="0" width="223.056" height="166.948" filterUnits="userSpaceOnUse" color-interpolation-filters="sRGB">
<feFlood flood-opacity="0" result="BackgroundImageFix"/>
<feBlend mode="normal" in="SourceGraphic" in2="BackgroundImageFix" result="shape"/>
<feGaussianBlur stdDeviation="2.5" result="effect1_foregroundBlur_172_234"/>
</filter>
</defs>
</svg>
